<?xml version="1.0" encoding="UTF-8"?><svg xmlns="http://www.w3.org/2000/svg" viewBox="0 0 2119.15 321.62"><g id="a"/><g id="b"><g id="c"><g><path id="d" d="M420.42,123.76h-24.88c-3.34,0-6.24-2.27-7.05-5.5l-.12-.45c-.55-2.17-.06-4.48,1.32-6.24L473.22,4.83c2.47-3.16,7.04-3.72,10.2-1.24,1.76,1.38,2.79,3.49,2.79,5.73v63.68h52.52c2.56,.01,4.73,1.87,5.15,4.39,.5,2.99,.86,5.76,1.08,8.3,.31,3.76,.46,7.68,.46,11.75,0,4.39-.15,8.62-.46,12.69-.23,2.83-.6,5.89-1.11,9.18-.4,2.55-2.58,4.43-5.16,4.44h-52.47v95.4c-.2,7.9,.59,15.79,2.35,23.5,1.16,5.16,3.49,9.99,6.81,14.1,2.89,3.4,6.74,5.86,11.04,7.05,5.06,1.34,10.28,1.97,15.51,1.87,4.65,0,9.29-.38,13.87-1.17,2.75-.47,5.29-.91,7.64-1.32,2.57-.45,5.07,1.1,5.83,3.6,1.44,4.64,2.51,9.38,3.22,14.18,.88,5.68,1.35,11.41,1.41,17.16,0,3.44-.08,6.34-.24,8.69-.07,1.01-.15,2.01-.25,2.99-.2,2.26-1.84,4.14-4.05,4.64-13.49,2.92-27.25,4.38-41.05,4.35-28.51,0-50.29-6.66-65.32-19.98-15.04-13.32-22.55-35.02-22.55-65.11V123.76Z" style="fill:#7a28b8;"/><path id="e" d="M644.68,214.92c1.25,18.8,7.83,32.42,19.74,40.88,11.91,8.46,27.58,12.69,47,12.69,10.96-.03,21.89-1.05,32.66-3.06,9.31-1.68,18.47-4.07,27.42-7.14,2.52-.9,5.32,.25,6.47,2.67,2.76,5.92,5.02,12.05,6.77,18.34,2.23,7.94,3.59,16.11,4.05,24.34,.13,2.3-1.27,4.41-3.43,5.19-25.43,8.82-52.2,13.13-79.11,12.76-22.56,0-41.91-3.13-58.04-9.39-15.01-5.51-28.53-14.44-39.48-26.09-10.35-11.41-18.06-24.97-22.56-39.71-5-16.29-7.45-33.25-7.28-50.28-.12-17.05,2.42-34.02,7.52-50.29,4.63-14.98,12.22-28.88,22.32-40.88,10.06-11.74,22.58-21.12,36.66-27.5,16.06-7.04,33.46-10.49,50.99-10.11,15.5-.28,30.89,2.76,45.11,8.93,12.8,5.69,24.24,14.02,33.6,24.44,9.45,10.71,16.58,23.28,20.92,36.89,4.78,14.8,7.16,30.27,7.05,45.82,0,5.96-.23,11.84-.7,17.63-.29,3.56-.61,6.67-.96,9.34-.34,2.59-2.55,4.53-5.17,4.53h-151.55Zm89.77-46.53c2.89,0,5.22-2.34,5.22-5.23,0-.18,0-.36-.03-.54-.86-11.19-5.05-21.86-12.02-30.65-7.68-9.25-18.41-13.87-32.2-13.87-15.67,0-27.57,4.39-35.71,13.16-7.1,7.64-11.69,18-13.8,31.08-.45,2.85,1.5,5.53,4.35,5.98,.27,.04,.54,.06,.81,.06h83.37Z" style="fill:#7a28b8;"/><path id="f" d="M1286.27,214.92c1.24,18.8,7.82,32.42,19.74,40.88,11.92,8.46,27.58,12.69,47,12.69,10.96-.03,21.89-1.05,32.67-3.06,9.3-1.68,18.45-4.07,27.39-7.14,2.52-.89,5.31,.26,6.47,2.67,2.76,5.92,5.02,12.05,6.77,18.34,2.23,7.94,3.59,16.11,4.05,24.34,.13,2.3-1.27,4.41-3.43,5.19-25.43,8.82-52.2,13.13-79.11,12.76-22.55,0-41.9-3.13-58.04-9.39-15.01-5.51-28.52-14.44-39.47-26.09-10.35-11.41-18.06-24.97-22.56-39.71-5-16.29-7.45-33.25-7.28-50.28-.12-17.05,2.41-34.01,7.52-50.28,4.64-14.98,12.23-28.88,22.33-40.88,10.06-11.74,22.58-21.12,36.66-27.5,16.06-7.04,33.46-10.49,50.99-10.11,15.5-.28,30.89,2.76,45.11,8.93,12.8,5.69,24.24,14.02,33.6,24.44,9.46,10.71,16.58,23.27,20.92,36.89,4.78,14.8,7.16,30.27,7.05,45.82,0,5.96-.23,11.84-.7,17.63-.29,3.56-.61,6.67-.96,9.34-.34,2.6-2.55,4.54-5.17,4.53h-151.54Zm89.77-46.54c2.89,0,5.23-2.34,5.22-5.23,0-.18,0-.36-.03-.54-.86-11.18-5.05-21.86-12.02-30.65-7.68-9.25-18.41-13.87-32.19-13.87-15.67,0-27.57,4.39-35.71,13.16-7.09,7.64-11.69,18-13.8,31.08-.45,2.85,1.5,5.53,4.35,5.98,.27,.04,.54,.06,.81,.06h83.37Z" style="fill:#7a28b8;"/><path id="g" d="M1759.35,123.76h-24.59c-4.22,0-7.63-3.42-7.63-7.64,0-1.7,.57-3.35,1.62-4.69L1812.14,4.83c2.47-3.16,7.04-3.72,10.2-1.25,1.76,1.38,2.79,3.5,2.79,5.74v63.68h52.52c2.56,.01,4.73,1.87,5.15,4.39,.5,2.98,.86,5.75,1.07,8.3,.31,3.76,.47,7.68,.47,11.75,0,4.39-.17,8.62-.47,12.69-.22,2.83-.59,5.89-1.11,9.18-.4,2.55-2.58,4.43-5.16,4.44h-52.48v95.41c-.2,7.9,.59,15.79,2.35,23.5,1.17,5.16,3.5,9.98,6.81,14.1,2.9,3.4,6.74,5.86,11.04,7.05,5.06,1.33,10.28,1.96,15.51,1.87,4.65,0,9.29-.38,13.87-1.17,2.76-.47,5.31-.91,7.66-1.32,2.56-.45,5.05,1.09,5.79,3.58,1.45,4.64,2.52,9.39,3.22,14.2,.88,5.68,1.35,11.41,1.41,17.16,0,3.44-.08,6.34-.23,8.69-.07,1.01-.16,2.01-.26,2.99-.2,2.26-1.83,4.13-4.04,4.64-13.49,2.92-27.26,4.38-41.07,4.35-28.51,0-50.29-6.66-65.32-19.98-15.03-13.32-22.55-35.01-22.55-65.09l.02-109.99Z" style="fill:#7a28b8;"/><path id="h" d="M2054.3,156.18c.26-6.33-1.04-12.62-3.76-18.33-2.38-4.55-5.95-8.37-10.34-11.04-4.99-2.87-10.5-4.71-16.21-5.41-7.09-.98-14.23-1.45-21.39-1.41-16.95,.21-33.77,3.07-49.84,8.47-2.42,.81-5.07-.26-6.25-2.52-3.15-6.13-5.77-12.53-7.83-19.11-2.04-7.16-3.13-14.55-3.23-21.99-.05-2.3,1.42-4.36,3.6-5.07,24.63-7.98,50.33-12.17,76.23-12.41,32.58,0,58.04,7.83,76.37,23.5,18.33,15.67,27.49,40.73,27.5,75.2v137.13c.01,2.29-1.49,4.32-3.68,4.98-10.23,3.04-22.32,5.95-36.27,8.74-17.5,3.3-35.29,4.88-53.1,4.7-14.75,.12-29.48-1.3-43.94-4.22-12.26-2.38-23.92-7.17-34.3-14.1-9.42-6.42-17.03-15.16-22.09-25.38-5.51-11.91-8.16-24.95-7.75-38.07,0-15.04,3.21-27.65,9.64-37.82,6.24-10.01,14.78-18.39,24.9-24.45,10.55-6.25,22.07-10.69,34.08-13.16,12.36-2.64,24.95-3.98,37.59-3.99,7.53,0,15.71,.32,24.53,.97,2.86,.2,5.35-1.96,5.55-4.82,0-.13,.01-.25,.01-.38Zm0,52.88c0-2.6-1.91-4.8-4.49-5.16-2.46-.35-5.04-.67-7.73-.96-3.9-.44-7.82-.68-11.75-.7-15.35,0-27.49,2.74-36.41,8.22-8.92,5.48-13.39,14.33-13.4,26.55,0,8.15,1.72,14.41,5.17,18.8,3.24,4.24,7.54,7.56,12.46,9.63,4.94,2.06,10.17,3.33,15.5,3.76,5.48,.47,10.26,.71,14.33,.71,4.72,0,9.44-.4,14.1-1.18,2.88-.48,5.52-.93,7.92-1.35,2.49-.44,4.3-2.6,4.3-5.12v-53.2Z" style="fill:#7a28b8;"/><path id="i" d="M1095.18,172.8c0-21.09,17.09-38.19,38.18-38.19h48.54c2.87,0,5.21-2.33,5.21-5.2v-54.97c0-3.62-2.93-6.55-6.55-6.55h-47.97c-57.51,0-104.13,46.63-104.13,104.14v142.8c0,3.62,2.93,6.55,6.55,6.55h54.97c2.87,0,5.21-2.33,5.21-5.2h0V172.8Z" style="fill:#7a28b8;"/><path id="j" d="M1636.88,75.96c-13.22-6.32-27.7-9.61-42.35-9.62h-17.36c-54.58,.15-98.79,44.36-98.94,98.94v148c0,3.61,2.93,6.55,6.55,6.55h54.98c2.87,0,5.2-2.33,5.2-5.2h0V171.25c0-21.09,17.1-38.18,38.19-38.19h5.43c21.09,0,38.18,17.1,38.18,38.19v143.37c0,2.87,2.33,5.2,5.2,5.2h54.98c3.62,0,6.55-2.93,6.55-6.55V165.27c-.02-38.21-22.06-72.98-56.6-89.31" style="fill:#7a28b8;"/><path id="k" d="M903.16,172.8c0-21.09,17.09-38.19,38.18-38.19h48.54c2.88,0,5.21-2.33,5.21-5.2h0v-54.97c0-3.62-2.93-6.55-6.55-6.55h-47.97c-57.52,0-104.14,46.62-104.14,104.14h0v142.8c0,3.62,2.93,6.55,6.55,6.55h54.98c2.87,0,5.21-2.32,5.21-5.2h0V172.8Z" style="fill:#7a28b8;"/><g><path id="l" d="M320.83,113V26.67C320.83,11.94,308.89,0,294.16,0H144.77c-27.36,0-37.07,36.22-13.37,49.9l149.38,86.24c12.78,7.37,29.11,2.99,36.48-9.79,2.34-4.06,3.57-8.66,3.57-13.35" style="fill:#7a28b8;"/><path id="m" d="M214.59,182.48l-92.62,92.62c-10.46,10.45-10.47,27.41-.01,37.87,5.02,5.03,11.84,7.85,18.95,7.85h153.58c14.55,0,26.34-11.8,26.34-26.34v-57.62c0-9.82-5.23-18.89-13.73-23.79l-60.33-34.82c-10.45-6.03-23.64-4.3-32.17,4.22" style="fill:#7a28b8;"/><path id="n" d="M0,82.14v174.41c0,14.74,11.95,26.7,26.7,26.7,7.06,0,13.83-2.8,18.84-7.78,36.94-36.79,73.88-73.58,110.82-110.38,10.49-10.49,10.48-27.49,0-37.98-1.66-1.66-3.53-3.09-5.56-4.26L40.15,58.96c-12.8-7.39-29.17-3.01-36.56,9.79C1.24,72.82,0,77.44,0,82.14" style="fill:#7a28b8;"/></g></g></g></g></svg>